<svg width="1024" height="1024" viewBox="0 0 1024 1024" fill="none" xmlns="http://www.w3.org/2000/svg">
  <path
    d="M512 132C532.5 132 548.5 147.9 555.2 168.1L599.6 304.2C630.4 398.9 705.1 473.6 799.8 504.4L935.9 548.8C956.1 555.5 972 571.5 972 592C972 612.5 956.1 628.5 935.9 635.2L799.8 679.6C705.1 710.4 630.4 785.1 599.6 879.8L555.2 1015.9C548.5 1036.1 532.5 1052 512 1052C491.5 1052 475.5 1036.1 468.8 1015.9L424.4 879.8C393.6 785.1 318.9 710.4 224.2 679.6L88.1 635.2C67.9 628.5 52 612.5 52 592C52 571.5 67.9 555.5 88.1 548.8L224.2 504.4C318.9 473.6 393.6 398.9 424.4 304.2L468.8 168.1C475.5 147.9 491.5 132 512 132Z"
    fill="white"
  />
</svg>
